<svg xmlns="http://www.w3.org/2000/svg" xmlns:xlink="http://www.w3.org/1999/xlink" width="1080" zoomAndPan="magnify" viewBox="0 0 810 809.999993" height="1080" preserveAspectRatio="xMidYMid meet" version="1.0"><defs><clipPath id="fa68a92814"><path d="M 126 20.96875 L 684 20.96875 L 684 750 L 126 750 Z M 126 20.96875 " clip-rule="nonzero"/></clipPath></defs><g clip-path="url(#fa68a92814)"><path fill="#009cde" d="M 519.507812 175.949219 C 468.316406 124.773438 419.472656 75.988281 404.9375 20.96875 C 390.398438 75.988281 341.550781 124.773438 290.367188 175.949219 C 213.585938 252.683594 126.539062 339.652344 126.539062 470.09375 C 126.523438 474.660156 126.621094 479.222656 126.832031 483.785156 C 127.039062 488.34375 127.363281 492.898438 127.796875 497.445312 C 128.230469 501.992188 128.773438 506.523438 129.429688 511.042969 C 130.085938 515.5625 130.855469 520.0625 131.730469 524.542969 C 132.609375 529.023438 133.597656 533.480469 134.695312 537.914062 C 135.792969 542.34375 136.996094 546.746094 138.3125 551.121094 C 139.625 555.496094 141.046875 559.832031 142.574219 564.136719 C 144.101562 568.4375 145.730469 572.703125 147.46875 576.925781 C 149.207031 581.148438 151.046875 585.328125 152.988281 589.457031 C 154.929688 593.589844 156.972656 597.671875 159.117188 601.707031 C 161.257812 605.738281 163.5 609.714844 165.839844 613.636719 C 168.179688 617.558594 170.613281 621.421875 173.140625 625.222656 C 175.667969 629.023438 178.289062 632.761719 181.003906 636.433594 C 183.714844 640.105469 186.515625 643.710938 189.40625 647.246094 C 192.296875 650.78125 195.273438 654.242188 198.332031 657.632812 C 201.394531 661.019531 204.535156 664.332031 207.757812 667.566406 C 210.980469 670.800781 214.28125 673.953125 217.660156 677.027344 C 221.039062 680.097656 224.492188 683.085938 228.015625 685.988281 C 231.542969 688.886719 235.136719 691.703125 238.800781 694.425781 C 242.464844 697.152344 246.191406 699.785156 249.984375 702.328125 C 253.777344 704.867188 257.632812 707.316406 261.546875 709.667969 C 265.460938 712.019531 269.429688 714.273438 273.453125 716.429688 C 277.476562 718.585938 281.550781 720.644531 285.679688 722.597656 C 289.804688 724.554688 293.976562 726.410156 298.191406 728.160156 C 302.410156 729.910156 306.664062 731.558594 310.964844 733.097656 C 315.261719 734.640625 319.59375 736.074219 323.964844 737.402344 C 328.332031 738.730469 332.730469 739.953125 337.160156 741.0625 C 341.585938 742.175781 346.039062 743.175781 350.519531 744.070312 C 354.996094 744.960938 359.492188 745.746094 364.007812 746.417969 C 368.523438 747.085938 373.054688 747.648438 377.597656 748.097656 C 382.140625 748.542969 386.695312 748.882812 391.253906 749.105469 C 395.816406 749.328125 400.378906 749.441406 404.945312 749.441406 C 409.511719 749.441406 414.074219 749.328125 418.632812 749.105469 C 423.195312 748.882812 427.746094 748.542969 432.289062 748.097656 C 436.832031 747.648438 441.363281 747.085938 445.878906 746.417969 C 450.394531 745.746094 454.890625 744.960938 459.371094 744.070312 C 463.847656 743.175781 468.300781 742.175781 472.730469 741.0625 C 477.15625 739.953125 481.554688 738.730469 485.925781 737.402344 C 490.292969 736.074219 494.625 734.640625 498.925781 733.097656 C 503.222656 731.558594 507.480469 729.910156 511.695312 728.160156 C 515.914062 726.410156 520.085938 724.554688 524.210938 722.597656 C 528.335938 720.644531 532.410156 718.585938 536.433594 716.429688 C 540.460938 714.273438 544.429688 712.019531 548.34375 709.667969 C 552.257812 707.316406 556.109375 704.867188 559.902344 702.328125 C 563.695312 699.785156 567.425781 697.152344 571.089844 694.425781 C 574.75 691.703125 578.347656 688.886719 581.871094 685.988281 C 585.398438 683.085938 588.847656 680.097656 592.226562 677.027344 C 595.605469 673.953125 598.90625 670.800781 602.128906 667.566406 C 605.351562 664.332031 608.496094 661.019531 611.554688 657.632812 C 614.613281 654.242188 617.589844 650.78125 620.480469 647.246094 C 623.371094 643.710938 626.171875 640.105469 628.882812 636.433594 C 631.597656 632.761719 634.21875 629.023438 636.746094 625.222656 C 639.277344 621.417969 641.710938 617.558594 644.046875 613.636719 C 646.386719 609.714844 648.628906 605.738281 650.773438 601.707031 C 652.914062 597.671875 654.957031 593.589844 656.898438 589.457031 C 658.84375 585.328125 660.683594 581.148438 662.417969 576.925781 C 664.15625 572.703125 665.789062 568.4375 667.316406 564.136719 C 668.84375 559.832031 670.261719 555.496094 671.578125 551.121094 C 672.890625 546.746094 674.097656 542.34375 675.191406 537.914062 C 676.289062 533.480469 677.277344 529.023438 678.15625 524.542969 C 679.035156 520.0625 679.800781 515.5625 680.457031 511.042969 C 681.113281 506.523438 681.660156 501.992188 682.09375 497.445312 C 682.527344 492.898438 682.847656 488.34375 683.058594 483.785156 C 683.265625 479.222656 683.363281 474.660156 683.347656 470.09375 C 683.347656 339.660156 596.308594 252.683594 519.507812 175.949219 M 244.871094 534.972656 C 227.800781 534.394531 164.796875 425.789062 281.675781 310.15625 L 359.019531 394.644531 C 359.351562 394.972656 359.644531 395.332031 359.902344 395.722656 C 360.15625 396.113281 360.371094 396.527344 360.539062 396.960938 C 360.707031 397.394531 360.828125 397.84375 360.902344 398.304688 C 360.976562 398.765625 361 399.230469 360.976562 399.695312 C 360.953125 400.164062 360.878906 400.621094 360.757812 401.070312 C 360.636719 401.523438 360.46875 401.957031 360.253906 402.371094 C 360.042969 402.785156 359.789062 403.175781 359.492188 403.535156 C 359.195312 403.898438 358.867188 404.222656 358.503906 404.515625 C 340.042969 423.445312 261.382812 502.335938 251.601562 529.613281 C 249.585938 535.246094 246.636719 535.03125 244.867188 534.972656 M 404.945312 678.109375 C 403.378906 678.109375 401.8125 678.070312 400.246094 677.992188 C 398.683594 677.914062 397.121094 677.800781 395.558594 677.648438 C 394 677.492188 392.445312 677.300781 390.894531 677.070312 C 389.347656 676.84375 387.800781 676.574219 386.265625 676.269531 C 384.726562 675.960938 383.199219 675.621094 381.679688 675.238281 C 380.160156 674.859375 378.648438 674.441406 377.148438 673.984375 C 375.652344 673.53125 374.164062 673.039062 372.6875 672.511719 C 371.210938 671.984375 369.75 671.417969 368.304688 670.820312 C 366.855469 670.21875 365.421875 669.585938 364.007812 668.914062 C 362.589844 668.246094 361.191406 667.539062 359.808594 666.800781 C 358.425781 666.0625 357.0625 665.289062 355.71875 664.484375 C 354.375 663.679688 353.050781 662.839844 351.75 661.96875 C 350.445312 661.101562 349.164062 660.199219 347.90625 659.265625 C 346.648438 658.332031 345.414062 657.367188 344.199219 656.371094 C 342.988281 655.378906 341.804688 654.355469 340.640625 653.300781 C 339.480469 652.25 338.347656 651.167969 337.238281 650.0625 C 336.128906 648.953125 335.050781 647.820312 333.996094 646.65625 C 332.945312 645.496094 331.921875 644.308594 330.929688 643.097656 C 329.933594 641.886719 328.96875 640.652344 328.035156 639.394531 C 327.101562 638.132812 326.199219 636.851562 325.332031 635.550781 C 324.460938 634.246094 323.621094 632.921875 322.816406 631.578125 C 322.011719 630.234375 321.238281 628.871094 320.5 627.488281 C 319.761719 626.105469 319.054688 624.707031 318.386719 623.292969 C 317.714844 621.875 317.082031 620.441406 316.480469 618.992188 C 315.882812 617.546875 315.316406 616.085938 314.789062 614.609375 C 314.261719 613.132812 313.769531 611.644531 313.316406 610.144531 C 312.859375 608.644531 312.441406 607.136719 312.0625 605.617188 C 311.683594 604.09375 311.339844 602.566406 311.03125 601.03125 C 310.726562 599.492188 310.460938 597.949219 310.230469 596.398438 C 310 594.847656 309.808594 593.292969 309.652344 591.734375 C 309.5 590.175781 309.386719 588.613281 309.308594 587.046875 C 309.230469 585.480469 309.191406 583.914062 309.191406 582.347656 C 309.28125 576.585938 309.863281 570.875 310.941406 565.214844 C 312.015625 559.554688 313.574219 554.027344 315.605469 548.636719 C 317.640625 543.246094 320.121094 538.070312 323.054688 533.109375 C 325.984375 528.148438 329.320312 523.476562 333.058594 519.09375 C 350.324219 497.980469 404.933594 438.59375 404.933594 438.59375 C 404.933594 438.59375 458.703125 498.851562 476.675781 518.894531 C 480.554688 523.207031 484.003906 527.839844 487.023438 532.796875 C 490.042969 537.75 492.578125 542.941406 494.632812 548.367188 C 496.6875 553.796875 498.222656 559.363281 499.242188 565.078125 C 500.261719 570.789062 500.746094 576.546875 500.695312 582.347656 C 500.695312 583.914062 500.65625 585.480469 500.578125 587.046875 C 500.503906 588.613281 500.386719 590.175781 500.234375 591.734375 C 500.082031 593.292969 499.886719 594.847656 499.660156 596.398438 C 499.429688 597.949219 499.160156 599.492188 498.855469 601.03125 C 498.550781 602.566406 498.207031 604.09375 497.824219 605.613281 C 497.445312 607.136719 497.027344 608.644531 496.570312 610.144531 C 496.117188 611.644531 495.625 613.132812 495.097656 614.609375 C 494.570312 616.082031 494.003906 617.546875 493.40625 618.992188 C 492.804688 620.441406 492.171875 621.875 491.5 623.289062 C 490.832031 624.707031 490.125 626.105469 489.386719 627.488281 C 488.648438 628.871094 487.878906 630.234375 487.070312 631.578125 C 486.265625 632.921875 485.429688 634.246094 484.558594 635.546875 C 483.6875 636.851562 482.785156 638.132812 481.851562 639.390625 C 480.917969 640.648438 479.953125 641.886719 478.960938 643.097656 C 477.964844 644.308594 476.941406 645.496094 475.890625 646.65625 C 474.839844 647.816406 473.757812 648.953125 472.648438 650.058594 C 471.542969 651.167969 470.40625 652.246094 469.246094 653.300781 C 468.085938 654.351562 466.898438 655.375 465.6875 656.371094 C 464.476562 657.363281 463.242188 658.328125 461.984375 659.261719 C 460.722656 660.195312 459.441406 661.097656 458.140625 661.96875 C 456.835938 662.839844 455.515625 663.675781 454.171875 664.484375 C 452.824219 665.289062 451.464844 666.0625 450.082031 666.800781 C 448.699219 667.539062 447.300781 668.242188 445.882812 668.914062 C 444.464844 669.582031 443.035156 670.21875 441.585938 670.816406 C 440.140625 671.417969 438.675781 671.980469 437.203125 672.507812 C 435.726562 673.039062 434.238281 673.527344 432.738281 673.984375 C 431.242188 674.4375 429.730469 674.855469 428.210938 675.238281 C 426.691406 675.617188 425.160156 675.960938 423.625 676.265625 C 422.089844 676.574219 420.542969 676.839844 418.996094 677.070312 C 417.445312 677.300781 415.890625 677.492188 414.332031 677.648438 C 412.769531 677.800781 411.207031 677.914062 409.644531 677.992188 C 408.078125 678.070312 406.511719 678.109375 404.945312 678.109375 M 588.210938 522.816406 C 586.148438 527.332031 581.464844 534.867188 575.148438 535.097656 C 563.886719 535.507812 562.683594 529.734375 554.355469 517.414062 C 536.082031 490.363281 376.585938 323.652344 346.753906 291.414062 C 320.511719 263.054688 343.058594 243.0625 353.515625 232.585938 C 366.636719 219.441406 404.933594 181.160156 404.933594 181.160156 C 404.933594 181.160156 519.132812 289.523438 566.699219 363.5625 C 614.269531 437.605469 597.878906 501.671875 588.210938 522.816406 " fill-opacity="1" fill-rule="nonzero"/></g></svg>